<?xml version="1.0" encoding="UTF-8"?><svg id="Layer_2" xmlns="http://www.w3.org/2000/svg" viewBox="0 0 400 300"><g id="Layer_1-2"><g id="_4:3_landscape"><line x1="2.43" y1="1.83" x2="397.2" y2="298.17" fill="none" stroke="#bdccd4" stroke-dasharray="0 0 10 5" stroke-miterlimit="10" stroke-width="2"/><line x1="398.42" y1="1.18" x2="2.43" y2="298.17" fill="none" stroke="#bdccd4" stroke-dasharray="0 0 10 5" stroke-miterlimit="10" stroke-width="2"/><line x1="400" y1="149.68" x2="2.43" y2="149.68" fill="#fff" stroke="#bdccd4" stroke-miterlimit="10" stroke-width="2"/><line x1="199.82" y1="1.83" x2="200.43" y2="298.17" fill="#fff" stroke="#bdccd4" stroke-miterlimit="10" stroke-width="2"/><rect x="1" y="1" width="11.33" height="8" fill="#fff"/><path d="m11.33,2v6H2V2h9.33m2-2H0v10h13.33V0h0Z" fill="#bdccd4"/><rect x="1" y="291" width="11.33" height="8" fill="#fff"/><path d="m11.33,292v6H2v-6h9.33m2-2H0v10h13.33v-10h0Z" fill="#bdccd4"/><rect x="387.67" y="291" width="11.33" height="8" fill="#fff"/><path d="m398,292v6h-9.33v-6h9.33m2-2h-13.33v10h13.33v-10h0Z" fill="#bdccd4"/><rect x="194.15" y="146" width="11.33" height="8" fill="#fff"/><path d="m204.48,147v6h-9.33v-6h9.33m2-2h-13.33v10h13.33v-10h0Z" fill="#bdccd4"/><rect x="387.67" y="1" width="11.33" height="8" fill="#fff"/><path d="m398,2v6h-9.33V2h9.33m2-2h-13.33v10h13.33V0h0Z" fill="#bdccd4"/><path d="m398,2v296H2V2h396m2-2H0v300h400V0h0Z" fill="#bdccd4"/></g></g></svg>