<?xml version="1.0" encoding="UTF-8"?><svg id="Layer_2" xmlns="http://www.w3.org/2000/svg" viewBox="0 0 300 400"><g id="Layer_1-2"><g id="_4:3_portrait"><line x1="1.83" y1="397.57" x2="298.17" y2="2.8" fill="none" stroke="#bdccd4" stroke-dasharray="0 0 10 5" stroke-miterlimit="10" stroke-width="2"/><line x1="1.18" y1="1.58" x2="298.17" y2="397.57" fill="none" stroke="#bdccd4" stroke-dasharray="0 0 10 5" stroke-miterlimit="10" stroke-width="2"/><line x1="149.68" x2="149.68" y2="397.57" fill="#fff" stroke="#bdccd4" stroke-miterlimit="10" stroke-width="2"/><line x1="1.83" y1="200.18" x2="298.17" y2="199.57" fill="#fff" stroke="#bdccd4" stroke-miterlimit="10" stroke-width="2"/><rect x="1" y="387.67" width="8" height="11.33" fill="#fff"/><path d="m8,388.67v9.33H2v-9.33h6m2-2H0v13.33h10v-13.33h0Z" fill="#bdccd4"/><rect x="291" y="387.67" width="8" height="11.33" fill="#fff"/><path d="m298,388.67v9.33h-6v-9.33h6m2-2h-10v13.33h10v-13.33h0Z" fill="#bdccd4"/><rect x="291" y="1" width="8" height="11.33" fill="#fff"/><path d="m298,2v9.33h-6V2h6M300,0h-10v13.33h10V0h0Z" fill="#bdccd4"/><rect x="146" y="194.52" width="8" height="11.33" fill="#fff"/><path d="m153,195.52v9.33h-6v-9.33h6m2-2h-10v13.33h10v-13.33h0Z" fill="#bdccd4"/><rect x="1" y="1" width="8" height="11.33" fill="#fff"/><path d="m8,2v9.33H2V2h6M10,0H0v13.33h10V0h0Z" fill="#bdccd4"/><path d="m298,2v396H2V2h296m2-2H0v400h300V0h0Z" fill="#bdccd4"/></g></g></svg>