<?xml version="1.0" encoding="UTF-8"?><svg id="Layer_2" xmlns="http://www.w3.org/2000/svg" viewBox="0 0 300 300"><g id="Layer_1-2"><line x1="1.83" y1="1.83" x2="297.9" y2="298.17" fill="none" stroke="#bdccd4" stroke-dasharray="0 0 10 5" stroke-miterlimit="10" stroke-width="2"/><line x1="298.82" y1="1.18" x2="1.83" y2="298.17" fill="none" stroke="#bdccd4" stroke-dasharray="0 0 10 5" stroke-miterlimit="10" stroke-width="2"/><line x1="300" y1="149.68" x2="1.83" y2="149.68" fill="#fff" stroke="#bdccd4" stroke-miterlimit="10" stroke-width="2"/><line x1="149.86" y1="1.83" x2="150.32" y2="298.17" fill="#fff" stroke="#bdccd4" stroke-miterlimit="10" stroke-width="2"/><rect x="1" y="1" width="8" height="8" fill="#fff"/><path d="m8,2v6H2V2h6m2-2H0v10h10V0h0Z" fill="#bdccd4"/><rect x="1" y="291" width="8" height="8" fill="#fff"/><path d="m8,292v6H2v-6h6m2-2H0v10h10v-10h0Z" fill="#bdccd4"/><rect x="291" y="291" width="8" height="8" fill="#fff"/><path d="m298,292v6h-6v-6h6m2-2h-10v10h10v-10h0Z" fill="#bdccd4"/><rect x="145.86" y="146" width="8" height="8" fill="#fff"/><path d="m152.86,147v6h-6v-6h6m2-2h-10v10h10v-10h0Z" fill="#bdccd4"/><rect x="291" y="1" width="8" height="8" fill="#fff"/><path d="m298,2v6h-6V2h6m2-2h-10v10h10V0h0Z" fill="#bdccd4"/><path d="m298,2v296H2V2h296m2-2H0v300h300V0h0Z" fill="#bdccd4"/></g></svg>